<?xml version="1.0" encoding="UTF-8" ?>
<!DOCTYPE svg PUBLIC "-//W3C//DTD SVG 1.1//EN" "http://www.w3.org/Graphics/SVG/1.1/DTD/svg11.dtd">
<svg width="250pt" height="250pt" viewBox="0 0 250 250" version="1.1" xmlns="http://www.w3.org/2000/svg">
<path fill="#333333" d=" M 0.00 0.00 L 250.00 0.00 L 250.00 250.00 L 0.00 250.00 L 0.00 0.00 Z" />
<path fill="#696969" d=" M 82.11 109.50 C 85.06 109.33 88.08 111.03 89.04 113.91 C 90.48 118.10 90.41 122.62 90.40 126.99 C 90.22 130.71 90.18 134.78 88.00 137.97 C 84.96 141.94 77.53 140.85 76.15 135.88 C 74.23 129.59 74.45 122.78 75.35 116.33 C 75.74 112.86 78.29 109.30 82.11 109.50 Z" />
<path fill="#696969" d=" M 161.28 113.34 C 162.92 109.60 168.01 108.49 171.38 110.46 C 173.25 111.56 173.88 113.75 174.83 115.56 C 173.66 116.07 172.49 116.57 171.32 117.07 C 170.29 115.65 169.83 113.42 167.88 113.00 C 164.82 113.06 164.33 116.56 164.15 118.93 C 163.94 123.99 163.55 129.19 164.76 134.15 C 165.15 136.29 168.14 137.43 169.64 135.70 C 171.34 133.44 170.84 130.38 171.14 127.73 C 170.23 127.66 168.43 127.51 167.53 127.44 C 167.53 126.62 167.54 124.96 167.54 124.14 C 170.02 124.14 172.50 124.14 174.98 124.13 C 174.80 128.29 175.08 132.62 173.60 136.58 C 171.79 141.30 164.18 141.62 161.79 137.26 C 159.78 133.52 159.84 129.12 159.72 124.99 C 159.81 121.08 159.77 117.01 161.28 113.34 Z" />
<path fill="#696969" d=" M 55.34 109.83 C 56.59 109.83 57.84 109.83 59.09 109.84 C 61.68 117.08 64.00 124.41 65.98 131.85 C 65.26 124.53 65.18 117.18 65.32 109.84 C 66.33 109.84 68.36 109.84 69.37 109.83 C 69.41 119.89 69.40 129.95 69.37 140.02 C 68.10 140.00 66.83 139.99 65.57 139.97 C 63.22 133.06 60.87 126.13 58.78 119.13 C 59.16 126.08 59.25 133.04 59.32 139.99 C 57.99 140.00 56.66 140.00 55.33 140.00 C 55.31 129.95 55.29 119.89 55.34 109.83 Z" />
<path fill="#696969" d=" M 107.33 109.84 C 108.68 109.84 110.02 109.84 111.37 109.84 C 111.41 119.89 111.40 129.94 111.37 140.00 C 110.02 140.00 108.68 140.00 107.33 140.00 C 107.31 129.95 107.30 119.90 107.33 109.84 Z" />
<path fill="#696969" d=" M 116.28 140.01 C 117.09 129.95 117.87 119.88 118.77 109.83 C 119.63 109.83 121.34 109.83 122.20 109.84 C 123.82 116.97 125.39 124.12 126.54 131.34 C 127.55 124.15 129.08 117.04 130.47 109.91 C 131.63 109.87 132.80 109.83 133.97 109.79 C 134.99 119.86 135.85 129.94 136.77 140.01 C 135.48 140.00 134.19 139.99 132.90 139.98 C 132.35 133.27 132.01 126.54 131.78 119.80 C 130.55 126.55 129.31 133.29 127.92 140.01 C 127.24 140.01 125.90 140.01 125.22 140.01 C 123.77 133.29 122.35 126.56 121.20 119.78 C 120.86 126.52 120.54 133.26 120.08 139.99 C 119.13 139.99 117.23 140.00 116.28 140.01 Z" />
<path fill="#696969" d=" M 140.07 140.00 C 142.24 129.94 144.39 119.87 146.65 109.82 C 147.43 109.82 148.97 109.82 149.75 109.83 C 151.99 119.86 154.10 129.93 156.23 139.99 C 154.90 140.00 153.58 140.00 152.25 140.00 C 151.84 138.05 151.44 136.09 151.05 134.13 C 149.09 134.15 147.13 134.14 145.18 134.11 C 144.75 136.07 144.33 138.03 143.92 140.00 C 142.63 140.00 141.35 140.00 140.07 140.00 Z" />
<path fill="#696969" d=" M 181.33 109.86 C 184.93 109.81 188.53 109.81 192.13 109.86 C 192.13 110.71 192.12 112.41 192.12 113.26 C 189.88 113.28 187.64 113.31 185.41 113.33 C 185.38 116.48 185.37 119.62 185.40 122.77 C 187.38 122.80 189.37 122.83 191.36 122.86 C 191.36 123.70 191.37 125.39 191.37 126.23 C 189.38 126.26 187.39 126.29 185.40 126.32 C 185.37 129.72 185.38 133.12 185.42 136.52 C 187.65 136.54 189.88 136.57 192.12 136.59 C 192.12 137.44 192.13 139.13 192.13 139.97 C 188.53 140.02 184.92 140.02 181.32 139.97 C 181.32 129.94 181.29 119.90 181.33 109.86 Z" />
<path fill="#333333" d=" M 81.47 113.46 C 83.80 112.37 85.63 114.95 85.70 117.05 C 86.23 122.79 86.66 128.76 85.33 134.41 C 84.76 136.89 81.03 137.36 80.10 134.90 C 78.46 130.09 79.07 124.85 79.12 119.86 C 79.39 117.68 79.20 114.63 81.47 113.46 Z" />
<path fill="#333333" d=" M 145.73 130.95 C 146.66 125.97 147.49 120.97 148.17 115.94 C 148.85 120.96 149.55 125.98 150.46 130.97 C 148.88 130.96 147.30 130.96 145.73 130.95 Z" />
</svg>
