<?xml version="1.0" standalone="no"?>
<!DOCTYPE svg PUBLIC "-//W3C//DTD SVG 20010904//EN"
 "http://www.w3.org/TR/2001/REC-SVG-20010904/DTD/svg10.dtd">
<svg version="1.0" xmlns="http://www.w3.org/2000/svg"
 width="490.000000pt" height="143.000000pt" viewBox="0 0 490.000000 143.000000"
 preserveAspectRatio="xMidYMid meet">
<metadata>
Created by potrace 1.13, written by Peter Selinger 2001-2015
</metadata>
<g transform="translate(0.000000,143.000000) scale(0.100000,-0.100000)"
fill="#1177FF" stroke="none">
<path d="M2116 1378 c-42 -72 -273 -551 -362 -753 l-85 -190 48 -42 c26 -24
53 -43 60 -43 7 0 57 92 112 203 81 168 108 213 149 254 46 46 134 94 148 81
2 -3 -18 -54 -47 -114 -86 -183 -150 -337 -145 -350 7 -19 96 -76 109 -71 12
5 43 74 163 362 83 200 87 224 47 264 -56 56 -114 54 -208 -9 -32 -21 -60 -38
-62 -36 -2 2 42 92 97 202 55 109 103 214 107 232 5 32 5 32 -35 32 -23 0 -44
5 -47 10 -11 19 -24 10 -49 -32z"/>
<path d="M4431 1241 c-8 -5 -28 -7 -45 -4 -30 5 -33 2 -89 -94 -76 -129 -302
-576 -333 -660 -14 -36 -21 -69 -17 -73 19 -16 135 -61 146 -57 7 2 29 58 51
123 62 193 129 356 235 572 78 157 96 202 83 202 -9 0 -23 -4 -31 -9z"/>
<path d="M1560 1027 c-97 -35 -157 -73 -231 -148 -107 -107 -175 -275 -155
-382 15 -78 112 -147 207 -147 85 0 197 69 232 143 13 27 23 147 13 147 -2 0
-17 -22 -35 -49 -51 -80 -142 -141 -208 -141 -42 0 -73 26 -73 61 0 110 155
341 274 410 65 37 73 36 43 -3 -52 -70 -52 -75 -11 -114 21 -19 41 -34 45 -34
14 0 127 99 154 134 18 23 25 42 20 55 -8 26 -52 54 -76 48 -10 -3 -19 -1 -19
4 0 14 -56 39 -87 39 -15 0 -57 -11 -93 -23z"/>
<path d="M2850 1025 c-8 -10 -30 -15 -60 -15 -113 0 -236 -66 -356 -192 -199
-207 -241 -415 -93 -459 51 -16 99 -5 160 36 32 22 49 29 45 19 -3 -9 -9 -27
-12 -41 -7 -24 -5 -25 22 -18 16 4 34 7 39 6 62 -7 47 -30 213 328 121 262
151 335 141 342 -23 14 -86 10 -99 -6z m-80 -134 c0 -22 -202 -311 -246 -352
-47 -43 -118 -78 -131 -65 -12 12 27 113 68 177 23 35 72 93 109 129 80 78
200 145 200 111z"/>
<path d="M907 1014 c-24 -13 -34 -13 -58 -3 -16 6 -33 9 -36 5 -4 -3 6 -65 21
-138 l27 -132 -137 -137 -136 -137 11 -33 c12 -37 26 -56 53 -77 15 -12 29 -1
129 103 78 80 115 112 120 103 4 -7 18 -53 30 -103 12 -49 25 -94 30 -99 5 -6
20 0 36 16 16 14 43 29 61 33 33 7 33 7 26 53 -3 26 -15 89 -26 141 l-20 94
54 56 c29 31 98 102 152 158 83 85 97 103 82 109 -10 4 -33 2 -50 -4 -17 -6
-47 -9 -67 -6 -35 6 -39 3 -120 -80 -46 -47 -86 -83 -90 -79 -3 5 -12 37 -19
73 -12 67 -25 100 -38 100 -4 -1 -20 -8 -35 -16z"/>
<path d="M3399 1010 c-13 -20 -16 -21 -44 -6 -43 22 -67 20 -141 -14 -81 -36
-178 -104 -227 -160 -83 -91 -149 -224 -163 -327 -11 -83 39 -153 109 -153 35
1 101 35 146 75 l41 37 -53 -109 c-29 -61 -68 -135 -87 -166 l-34 -56 -28 50
c-45 78 -112 92 -138 29 -35 -84 113 -211 217 -185 46 11 90 71 164 223 39 81
138 283 220 448 82 166 149 305 149 309 0 4 -19 5 -41 1 -31 -5 -46 -3 -59 9
-16 14 -18 14 -31 -5z m-79 -130 c0 -50 -88 -168 -207 -280 -112 -104 -153
-121 -153 -61 0 81 159 274 273 331 71 35 87 37 87 10z"/>
<path d="M3969 1010 c-13 -20 -16 -21 -44 -6 -43 22 -67 20 -141 -14 -81 -36
-178 -104 -227 -160 -83 -91 -149 -224 -163 -327 -11 -83 39 -153 109 -153 35
1 101 35 146 75 l41 37 -53 -109 c-29 -61 -68 -135 -87 -166 l-34 -56 -28 50
c-45 78 -112 92 -138 29 -35 -84 113 -211 217 -185 46 11 90 71 164 223 39 81
138 283 220 448 82 166 149 305 149 309 0 4 -19 5 -41 1 -31 -5 -46 -3 -59 9
-16 14 -18 14 -31 -5z m-79 -130 c0 -50 -88 -168 -207 -280 -112 -104 -153
-121 -153 -61 0 81 159 274 273 331 71 35 87 37 87 10z"/>
<path d="M391 994 c-83 -22 -150 -63 -221 -134 -129 -130 -192 -318 -141 -418
24 -47 46 -66 95 -82 115 -37 336 46 383 145 15 32 15 36 0 53 -9 10 -17 26
-17 36 0 13 -9 8 -34 -18 -67 -72 -226 -118 -281 -82 -17 11 -25 25 -25 44 0
41 10 48 70 56 72 9 221 60 285 96 120 69 165 166 115 248 -42 69 -115 87
-229 56z m118 -128 c19 -22 -5 -51 -69 -85 -53 -29 -217 -77 -227 -67 -3 3 7
21 23 41 29 39 94 87 147 110 42 19 111 19 126 1z"/>
<path d="M4611 994 c-83 -22 -150 -63 -221 -134 -129 -130 -192 -318 -141
-418 24 -47 46 -66 95 -82 115 -37 336 46 383 145 15 32 15 36 0 53 -9 10 -17
26 -17 36 0 13 -9 8 -34 -18 -67 -72 -226 -118 -281 -82 -17 11 -25 25 -25 44
0 41 10 48 70 56 72 9 221 60 285 96 120 69 165 166 115 248 -42 69 -115 87
-229 56z m118 -128 c19 -22 -5 -51 -69 -85 -53 -29 -217 -77 -227 -67 -3 3 7
21 23 41 29 39 94 87 147 110 42 19 111 19 126 1z"/>
</g>
</svg>
